<svg xmlns="http://www.w3.org/2000/svg" xmlns:xlink="http://www.w3.org/1999/xlink" viewBox="0,0,256,256" width="48px" height="48px" fill-rule="nonzero"><g fill="#ffffff" fill-rule="nonzero" stroke="none" stroke-width="1" stroke-linecap="butt" stroke-linejoin="miter" stroke-miterlimit="10" stroke-dasharray="" stroke-dashoffset="0" font-family="none" font-weight="none" font-size="none" text-anchor="none" style="mix-blend-mode: normal"><g transform="scale(2.56,2.56)"><path d="M50,15c-19.31813,0 -35,15.68188 -35,35c0,19.31812 15.68187,35 35,35c19.31813,0 35,-15.68188 35,-35c0,-19.31812 -15.68187,-35 -35,-35zM50,17c18.23725,0 33,14.76276 33,33c0,18.23724 -14.76275,33 -33,33c-18.23725,0 -33,-14.76276 -33,-33c0,-18.23724 14.76275,-33 33,-33zM50,21c-16.01022,0 -29,12.98978 -29,29c0,16.01022 12.98978,29 29,29c6.2576,0 12.05739,-1.98443 16.79688,-5.35742c0.1494,-0.1021 0.23199,-0.27696 0.21593,-0.45721c-0.01605,-0.18025 -0.12824,-0.33776 -0.29333,-0.41185c-0.1651,-0.07409 -0.35734,-0.05321 -0.50268,0.05461c-2.19143,1.55959 -4.62085,2.80041 -7.2168,3.68164v-8.85547c0,-2.29174 -1.12495,-4.32155 -2.80273,-5.6543h0.75195c7.17595,0 13.00586,-5.78277 13.00586,-12.96094c0,-3.3585 -1.32095,-6.39083 -3.41406,-8.69727c0.37615,-2.27236 0.33079,-5.30458 -0.56836,-8c-0.06813,-0.20422 -0.25932,-0.34191 -0.47461,-0.3418c-4.58976,0 -8.11874,3.29733 -8.86523,4h-12.4668c-0.69549,-0.6642 -4.07548,-4 -8.66602,-4c-0.21528,-0.00011 -0.40648,0.13758 -0.47461,0.3418c-0.7971,2.39231 -1.07201,5.12662 -0.86523,7.25781c-2.51638,2.36844 -4.11328,5.71019 -4.11328,9.43945c0,7.17817 5.83001,12.95898 13.00586,12.95898h0.99414c-1.35802,0.98479 -2.42378,2.2957 -2.83398,3.9707c-0.92612,-0.0091 -1.96935,-0.04156 -2.93359,-0.29102c-1.05864,-0.27388 -1.97526,-0.75857 -2.54492,-1.61328c-1.2496,-1.8744 -2.17918,-2.85329 -3.02344,-3.37695c-0.84426,-0.52367 -1.59644,-0.53711 -2.21094,-0.53711c-0.39083,0 -0.7511,0.09996 -1.02539,0.32617c-0.27429,0.22621 -0.42861,0.57177 -0.44727,0.91602c-0.03732,0.68849 0.34081,1.39355 1.01953,2.07227c1.23,1.23 1.13523,1.10055 2.36523,3.56055c1.07704,2.15575 3.82226,3.80893 8.58789,3.92969v5.55859c-11.04926,-3.74741 -19,-14.19424 -19,-26.51367c0,-15.46978 12.53022,-28 28,-28c15.46978,0 28,12.53022 28,28c0,2.88559 -0.43571,5.66932 -1.24609,8.28711c-0.05946,0.17255 -0.02019,0.36379 0.10245,0.49895c0.12265,0.13516 0.30919,0.19276 0.48669,0.15029c0.1775,-0.04248 0.31776,-0.17828 0.36594,-0.35432c0.83962,-2.71221 1.29102,-5.59562 1.29102,-8.58203c0,-16.01022 -12.98978,-29 -29,-29zM35.88672,33.06836c4.02033,0.20004 7.1462,3.21636 7.76563,3.79688c0.0927,0.08667 0.21489,0.13484 0.3418,0.13477h12.80273c0.12717,-0.00045 0.2494,-0.04934 0.3418,-0.13672c0.5737,-0.53955 3.92816,-3.58724 7.96094,-3.79297c0.73263,2.47197 0.80623,5.2988 0.44531,7.30664c-0.02794,0.15618 0.01989,0.31636 0.12891,0.43164c2.0308,2.15088 3.28125,5.04045 3.28125,8.23047c0,6.63783 -5.36581,11.96094 -12.00586,11.96094h-2.44922c-0.23559,-0.00077 -0.43976,0.16301 -0.49012,0.39316c-0.05036,0.23015 0.06675,0.46423 0.28113,0.56192c2.14586,0.98364 3.70898,3.18738 3.70898,5.69922v9.16797c-2.53622,0.75551 -5.21697,1.17773 -8,1.17773c-2.78109,0 -5.46464,-0.40985 -8,-1.16406v-6.33594c-0.00003,-0.27613 -0.22387,-0.49997 -0.5,-0.5c-4.88853,0 -7.2868,-1.60607 -8.19336,-3.42187c-1.23,-2.46 -1.32273,-2.59031 -2.55273,-3.82031c-0.55128,-0.55128 -0.73925,-1.07654 -0.72656,-1.31055c0.0063,-0.117 0.03203,-0.15637 0.08398,-0.19922c0.05196,-0.04285 0.1645,-0.09766 0.38867,-0.09766c0.6145,0 1.0406,-0.01211 1.68359,0.38672c0.643,0.39883 1.50835,1.26643 2.71875,3.08203c0.74734,1.12129 1.92239,1.71427 3.125,2.02539c1.20261,0.31112 2.45749,0.35352 3.47266,0.35352c0.24482,0.00043 0.45395,-0.17647 0.49414,-0.41797c0.33403,-2.05361 1.84843,-3.77248 3.71484,-4.62695c0.21438,-0.09769 0.33149,-0.33177 0.28113,-0.56192c-0.05036,-0.23015 -0.25453,-0.39392 -0.49012,-0.39316h-2.44727c-6.64015,0 -12.00586,-5.32115 -12.00586,-11.95898c0,-3.52558 1.52452,-6.67707 3.94336,-8.87305c0.11978,-0.10887 0.17946,-0.26898 0.16016,-0.42969c-0.21675,-1.85448 0.05767,-4.42891 0.73633,-6.66797zM36.17188,41.97461c-0.12951,0.00667 -0.25136,0.0634 -0.33984,0.1582c-0.89205,0.92568 -1.58544,1.991 -2.05664,3.14844c-0.07422,0.16671 -0.05173,0.36062 0.05868,0.50592c0.11041,0.1453 0.29121,0.21892 0.47171,0.19207c0.1805,-0.02685 0.33205,-0.14989 0.39539,-0.32104c0.4228,-1.03856 1.04562,-1.99571 1.85156,-2.83203c0.14551,-0.14667 0.18584,-0.36774 0.10149,-0.55634c-0.08435,-0.1886 -0.27601,-0.30591 -0.48235,-0.29522zM33.63477,47.02148c-0.23679,0.01427 -0.43097,0.19295 -0.46484,0.42773c-0.08205,0.52069 -0.12305,1.0518 -0.12305,1.58984c0,0.52884 0.04099,1.05057 0.12109,1.55859c0.01901,0.18415 0.1382,0.34274 0.3098,0.41219c0.17161,0.06946 0.36755,0.03842 0.50928,-0.08068c0.14174,-0.11909 0.20608,-0.30675 0.16724,-0.48776c-0.0719,-0.45597 -0.10742,-0.92519 -0.10742,-1.40234c0,-0.48596 0.03738,-0.96428 0.11133,-1.43359c0.02594,-0.15062 -0.01842,-0.30482 -0.12043,-0.41863c-0.10201,-0.11381 -0.25046,-0.17472 -0.40301,-0.16535zM34.19531,51.98047c-0.16769,-0.002 -0.32521,0.08018 -0.4195,0.21886c-0.09429,0.13868 -0.11278,0.31539 -0.04925,0.47059c1.25938,3.22638 4.14561,5.64144 7.64648,6.23633c0.18108,0.04192 0.37046,-0.02006 0.49173,-0.16091c0.12127,-0.14085 0.15441,-0.33735 0.08604,-0.51018c-0.06836,-0.17284 -0.22695,-0.29349 -0.41176,-0.31328c-3.14912,-0.53511 -5.74824,-2.71361 -6.88086,-5.61523c-0.07194,-0.19403 -0.25597,-0.3237 -0.46289,-0.32617zM76.50977,59.93555c-0.20019,0.00812 -0.3762,0.13494 -0.44727,0.32227c-0.9882,2.50978 -2.32986,4.84168 -3.96289,6.9375c-0.16989,0.21789 -0.13098,0.53226 0.08691,0.70215c0.21789,0.16989 0.53226,0.13098 0.70215,-0.08691c1.69097,-2.17018 3.07971,-4.58533 4.10352,-7.18555c0.06461,-0.15748 0.04467,-0.33701 -0.05292,-0.47648c-0.09759,-0.13947 -0.25942,-0.21971 -0.4295,-0.21298zM70.76367,68.98828c-0.12967,0.0087 -0.25086,0.06754 -0.33789,0.16406c-0.67104,0.71525 -1.38007,1.39437 -2.12305,2.03711c-0.14084,0.11522 -0.20796,0.29786 -0.17527,0.47686c0.03269,0.179 0.16004,0.32612 0.33251,0.38413c0.17247,0.05801 0.36284,0.01774 0.49706,-0.10513c0.76902,-0.66527 1.50231,-1.36863 2.19727,-2.10937c0.13731,-0.14171 0.17845,-0.35091 0.10503,-0.53406c-0.07343,-0.18315 -0.2477,-0.30599 -0.44487,-0.3136c-0.01692,-0.00086 -0.03386,-0.00086 -0.05078,0z"></path></g></g></svg>